<svg width="30" height="30" viewBox="0 0 30 30" fill="none" xmlns="http://www.w3.org/2000/svg">
<path d="M25.575 29.55L21.1875 25.2L17.8875 28.5L16.8375 27.45C16.2625 26.875 15.975 26.1625 15.975 25.3125C15.975 24.4625 16.2625 23.75 16.8375 23.175L23.175 16.8375C23.75 16.2625 24.4625 15.975 25.3125 15.975C26.1625 15.975 26.875 16.2625 27.45 16.8375L28.5 17.8875L25.2 21.1875L29.55 25.575C29.85 25.875 30 26.225 30 26.625C30 27.025 29.85 27.375 29.55 27.675L27.675 29.55C27.375 29.85 27.025 30 26.625 30C26.225 30 25.875 29.85 25.575 29.55ZM30 6L12.975 23.025L13.1625 23.175C13.7375 23.75 14.025 24.4625 14.025 25.3125C14.025 26.1625 13.7375 26.875 13.1625 27.45L12.1125 28.5L8.8125 25.2L4.425 29.55C4.125 29.85 3.775 30 3.375 30C2.975 30 2.625 29.85 2.325 29.55L0.45 27.675C0.15 27.375 0 27.025 0 26.625C0 26.225 0.15 25.875 0.45 25.575L4.8 21.1875L1.5 17.8875L2.55 16.8375C3.125 16.2625 3.8375 15.975 4.6875 15.975C5.5375 15.975 6.25 16.2625 6.825 16.8375L6.975 17.025L24 0H30V6ZM9.525 11.2875L10.425 10.425L11.2875 9.525L10.425 10.425L9.525 11.2875ZM7.425 13.425L0 6V0H6L13.425 7.425L11.2875 9.525L4.7625 3H3V4.7625L9.525 11.2875L7.425 13.425ZM10.875 20.8875L27 4.7625V3H25.2375L9.1125 19.125L10.875 20.8875ZM10.875 20.8875L9.975 20.025L9.1125 19.125L9.975 20.025L10.875 20.8875Z" fill="#E3E2E8"/>
</svg>
